<svg width="24" height="24" viewBox="0 0 24 24" fill="none" xmlns="http://www.w3.org/2000/svg">
<path d="M17.2296 10.3758C18.1431 10.5164 18.7755 10.938 19.1268 11.5001C19.4782 12.0623 19.689 13.046 19.689 14.3108C19.689 16.8405 18.916 18.9485 17.3701 20.5647C15.8243 22.1808 13.8568 23.024 11.4677 23.024C10.5542 23.024 9.64069 22.8835 8.72721 22.5322C7.81373 22.1808 7.11105 21.689 6.47864 21.1268C5.77596 20.4944 5.21382 19.7215 4.86248 19.0188C4.58141 18.2458 4.37061 17.4729 4.37061 16.6999C4.37061 15.8567 4.58141 15.1541 4.93275 14.6622C5.28409 14.1703 5.9165 13.8892 6.68944 13.6784C6.54891 13.3271 6.40837 13.046 6.3381 12.7649C6.26784 12.5541 6.19757 12.3433 6.19757 12.2028C6.19757 11.7812 6.40837 11.2893 6.90025 10.7974C7.39212 10.3056 7.81373 10.0948 8.23533 10.0948C8.44614 10.0948 8.58667 10.0948 8.79748 10.165C9.00828 10.2353 9.21908 10.3056 9.50015 10.5164C8.86774 8.40834 8.23533 6.65165 7.88399 5.4571C7.53266 4.26255 7.39212 3.4896 7.39212 2.99773C7.39212 2.36532 7.53266 1.87344 7.88399 1.5221C8.16507 1.17076 8.65694 0.959961 9.21908 0.959961C10.1326 0.959961 11.3271 3.06799 12.8027 7.35433C13.0838 8.05701 13.2243 8.61915 13.3649 9.04075C13.5054 8.75968 13.646 8.26781 13.8568 7.70567C15.3324 3.4896 16.5972 1.38157 17.5809 1.38157C18.0728 1.38157 18.4944 1.5221 18.8458 1.87344C19.1268 2.22478 19.3376 2.71666 19.3376 3.2788C19.3376 3.7004 19.1971 4.54362 18.8458 5.73817C18.4242 6.93272 17.9323 8.47861 17.2296 10.3758ZM6.40837 16.5594C6.54891 16.6999 6.75971 16.981 6.97051 17.3324C7.60292 18.2458 8.23533 18.7377 8.79748 18.7377C9.00828 18.7377 9.14881 18.6674 9.28935 18.5269C9.42989 18.3864 9.50015 18.2458 9.50015 18.1756C9.50015 18.035 9.42988 17.754 9.21908 17.4026C9.00828 17.0513 8.72721 16.6297 8.37587 16.2081C7.95426 15.7162 7.60292 15.2946 7.39212 15.0838C7.11105 14.873 6.90025 14.7324 6.75971 14.7324C6.40837 14.7324 6.05703 14.9432 5.77596 15.2946C5.49489 15.6459 5.35435 16.1378 5.35435 16.6297C5.35435 17.0513 5.42462 17.4729 5.63543 18.035C5.84623 18.5269 6.1273 19.089 6.54891 19.5809C7.18132 20.2836 7.88399 20.916 8.79748 21.3376C9.71096 21.7592 10.6244 21.97 11.7487 21.97C13.7162 21.97 15.3324 21.2673 16.6675 19.7917C18.0026 18.3161 18.635 16.4891 18.635 14.2406C18.635 13.5379 18.5647 13.046 18.4944 12.6244C18.4242 12.2028 18.2134 11.9217 18.0026 11.7812C17.5809 11.4299 16.808 11.1488 15.6134 10.8677C14.4189 10.5866 13.1541 10.4461 11.8893 10.4461C11.5379 10.4461 11.2568 10.5164 11.1163 10.6569C10.9758 10.7974 10.9055 11.0083 10.9055 11.2893C10.9055 11.992 11.2568 12.4839 12.0298 12.7649C12.8027 13.046 14.0676 13.2568 15.754 13.2568H16.3864C16.5269 13.2568 16.6675 13.3271 16.7377 13.3974C16.808 13.5379 16.8783 13.6784 16.8783 13.8892C16.7377 14.0298 16.3864 14.2406 15.8243 14.4514C15.2621 14.6622 14.9108 14.873 14.6297 15.0838C13.9973 15.5054 13.5054 16.0675 13.1541 16.6999C12.8027 17.3324 12.5919 17.8945 12.5919 18.4566C12.5919 18.808 12.6622 19.1593 12.8027 19.6512C12.9433 20.1431 13.0135 20.4241 13.0135 20.4944V20.6349V20.7755C12.5919 20.7755 12.2406 20.4944 11.9595 20.0025C11.6785 19.5107 11.6082 18.8782 11.6082 18.035V17.8945C11.5379 17.9648 11.4677 18.035 11.3974 18.035C11.3271 18.035 11.2568 18.1053 11.1163 18.1053H10.8352C10.765 18.1053 10.6947 18.035 10.5542 18.035C10.5542 18.1756 10.6244 18.2458 10.6244 18.3864V18.6674C10.6244 19.0188 10.4839 19.3701 10.2028 19.6512C9.92176 19.9323 9.57042 20.0728 9.14881 20.0728C8.5164 20.0728 7.88399 19.7917 7.18132 19.1593C6.54891 18.5269 6.19757 17.9648 6.19757 17.3324C6.19757 17.1918 6.19757 17.1215 6.26784 17.0513C6.26784 16.6999 6.3381 16.6297 6.40837 16.5594ZM10.9758 16.9107C11.1163 16.9107 11.3271 16.8405 11.4677 16.6999C11.6082 16.5594 11.6785 16.3486 11.6785 16.2081C11.6785 15.9973 11.5379 15.5757 11.2568 14.873C10.9758 14.1703 10.6244 13.4676 10.2028 12.8352C9.92176 12.3433 9.57042 11.9217 9.28935 11.7109C9.00828 11.4299 8.72721 11.3596 8.44614 11.3596C8.23533 11.3596 8.02453 11.5001 7.74346 11.7812C7.46239 12.0623 7.39212 12.2731 7.39212 12.5541C7.39212 12.7649 7.53266 13.1866 7.74346 13.6784C8.02453 14.1703 8.3056 14.6622 8.72721 15.2243C9.14881 15.7865 9.57042 16.2783 9.99203 16.6297C10.4136 16.7702 10.6947 16.9107 10.9758 16.9107ZM12.4514 9.6029L10.765 4.89496C10.3434 3.7004 10.0623 2.85719 9.78122 2.50585C9.57042 2.15451 9.35962 1.94371 9.07855 1.94371C8.86774 1.94371 8.72721 2.01398 8.58667 2.15451C8.37587 2.36532 8.3056 2.57612 8.3056 2.85719C8.3056 3.34907 8.5164 4.12201 8.86774 5.24629C9.21908 6.37058 9.78122 7.91647 10.4839 9.74343C10.5542 9.6029 10.6244 9.53263 10.765 9.53263C10.9055 9.46236 11.046 9.46236 11.1866 9.46236H11.5379C11.7487 9.53263 12.0298 9.53263 12.4514 9.6029ZM14.1378 14.1703C13.7162 14.1703 13.2946 14.1 12.873 14.0298C12.4514 13.9595 12.1001 13.8892 11.7487 13.7487C11.8893 14.1 12.0298 14.3811 12.1703 14.7324C12.3109 15.0838 12.3811 15.3649 12.4514 15.7162C12.6622 15.4351 12.9433 15.1541 13.2243 14.873C13.5757 14.5919 13.8568 14.3811 14.1378 14.1703ZM16.1756 10.0948C16.8783 8.26781 17.3701 6.72192 17.7917 5.52737C18.1431 4.33281 18.3539 3.63014 18.3539 3.34907C18.3539 3.06799 18.2836 2.85719 18.1431 2.64639C18.0026 2.50585 17.862 2.43558 17.6512 2.43558C17.3701 2.43558 17.0891 2.64639 16.808 3.13826C16.5269 3.63014 16.1756 4.33281 15.8243 5.38683L14.2784 9.74343L16.1756 10.0948Z" fill="white"/>
</svg>
