<svg width="24" height="24" viewBox="0 0 24 24" fill="none" xmlns="http://www.w3.org/2000/svg">
<g clip-path="url(#clip0_67_1261)">
<path d="M22.085 4.733L24 2.901V2.5H17.366L12.638 14.268L7.259 2.5H0.303V2.901L2.54 5.594C2.758 5.793 2.872 6.084 2.843 6.377V16.96C2.912 17.341 2.788 17.733 2.52 18.01L0 21.064V21.46H7.145V21.059L4.625 18.01C4.352 17.732 4.223 17.347 4.278 16.96V7.806L10.55 21.465H11.279L16.672 7.806V18.687C16.672 18.974 16.672 19.033 16.484 19.221L14.544 21.098V21.5H23.956V21.099L22.086 19.268C21.922 19.144 21.837 18.936 21.872 18.734V5.267C21.837 5.064 21.921 4.856 22.085 4.733Z" fill="white"/>
</g>
<defs>
<clipPath id="clip0_67_1261">
<rect width="24" height="24" fill="white"/>
</clipPath>
</defs>
</svg>
