<svg width="24" height="24" viewBox="0 0 24 24" fill="none" xmlns="http://www.w3.org/2000/svg">
<path d="M17.249 15C16.835 15 16.499 15.336 16.499 15.75V22.5H4.49902V15.75C4.49902 15.336 4.16302 15 3.74902 15C3.33502 15 2.99902 15.336 2.99902 15.75V23.25C2.99902 23.664 3.33502 24 3.74902 24H17.249C17.663 24 17.999 23.664 17.999 23.25V15.75C17.999 15.336 17.663 15 17.249 15Z" fill="white"/>
<path d="M14.249 19.5H6.74902C6.33502 19.5 5.99902 19.836 5.99902 20.25C5.99902 20.664 6.33502 21 6.74902 21H14.249C14.663 21 14.999 20.664 14.999 20.25C14.999 19.836 14.663 19.5 14.249 19.5Z" fill="white"/>
<path d="M14.3227 16.5046L6.82269 15.7546C6.4042 15.7141 6.0442 16.0141 6.0022 16.4251C5.9617 16.8376 6.2617 17.2051 6.67419 17.2456L14.1742 17.9956C14.1997 17.9986 14.2252 18.0001 14.2507 18.0001C14.6302 18.0001 14.9572 17.7121 14.9932 17.3251C15.0367 16.9126 14.7337 16.5451 14.3227 16.5046Z" fill="white"/>
<path d="M15.2151 13.5317L7.71513 11.2817C7.31463 11.1617 6.89913 11.3882 6.78063 11.7842C6.66213 12.1817 6.88713 12.5987 7.28313 12.7187L14.7831 14.9687C14.8551 14.9897 14.9271 15.0002 14.9991 15.0002C15.3216 15.0002 15.6201 14.7902 15.7176 14.4647C15.8376 14.0672 15.6126 13.6502 15.2151 13.5317Z" fill="white"/>
<path d="M16.1139 10.5945L9.36393 6.84453C9.00243 6.64053 8.54493 6.77403 8.34393 7.13553C8.14143 7.49853 8.27193 7.95452 8.63493 8.15552L15.3849 11.9055C15.5004 11.97 15.6249 12 15.7494 12C16.0119 12 16.2684 11.8605 16.4049 11.6145C16.6059 11.2515 16.4754 10.7955 16.1139 10.5945Z" fill="white"/>
<path d="M17.8853 9.35246L14.1353 3.35249C13.9163 2.99999 13.4528 2.89649 13.1018 3.11399C12.7508 3.33299 12.6443 3.79649 12.8633 4.14748L16.6133 10.1475C16.7558 10.3755 17.0003 10.5 17.2493 10.5C17.3858 10.5 17.5238 10.464 17.6468 10.386C17.9978 10.167 18.1043 9.70346 17.8853 9.35246Z" fill="white"/>
<path d="M20.9856 8.10306L19.4856 0.603093C19.4031 0.196595 18.9921 -0.0674039 18.6036 0.0150957C18.1956 0.0960954 17.9316 0.490594 18.0141 0.897092L19.5141 8.39706C19.5861 8.75406 19.8981 9.00006 20.2476 9.00006C20.2971 9.00006 20.3466 8.99556 20.3961 8.98506C20.8041 8.90406 21.0681 8.50956 20.9856 8.10306Z" fill="white"/>
</svg>
