<svg width="175" height="175" viewBox="0 0 175 175" fill="none" xmlns="http://www.w3.org/2000/svg">
<circle cx="1.64237" cy="1.64237" r="1.64237" fill="#1A2236"/>
<circle cx="1.64237" cy="26.1731" r="1.64237" fill="#1A2236"/>
<circle cx="1.64237" cy="50.7039" r="1.64237" fill="#1A2236"/>
<circle cx="1.64237" cy="75.2348" r="1.64237" fill="#1A2236"/>
<circle cx="1.64237" cy="99.7655" r="1.64237" fill="#1A2236"/>
<circle cx="1.64237" cy="124.296" r="1.64237" fill="#1A2236"/>
<circle cx="1.64237" cy="148.827" r="1.64237" fill="#1A2236"/>
<circle cx="1.64237" cy="173.358" r="1.64237" fill="#1A2236"/>
<circle cx="26.1732" cy="1.64237" r="1.64237" fill="#1A2236"/>
<circle cx="26.1732" cy="26.1731" r="1.64237" fill="#1A2236"/>
<circle cx="26.1732" cy="50.7039" r="1.64237" fill="#1A2236"/>
<circle cx="26.1732" cy="75.2348" r="1.64237" fill="#1A2236"/>
<circle cx="26.1732" cy="99.7655" r="1.64237" fill="#1A2236"/>
<circle cx="26.1732" cy="124.296" r="1.64237" fill="#1A2236"/>
<circle cx="26.1732" cy="148.827" r="1.64237" fill="#1A2236"/>
<circle cx="26.1732" cy="173.358" r="1.64237" fill="#1A2236"/>
<circle cx="50.704" cy="1.64237" r="1.64237" fill="#1A2236"/>
<circle cx="50.704" cy="26.1731" r="1.64237" fill="#1A2236"/>
<circle cx="50.704" cy="50.7039" r="1.64237" fill="#1A2236"/>
<circle cx="50.704" cy="75.2348" r="1.64237" fill="#1A2236"/>
<circle cx="50.704" cy="99.7655" r="1.64237" fill="#1A2236"/>
<circle cx="50.704" cy="124.296" r="1.64237" fill="#1A2236"/>
<circle cx="50.704" cy="148.827" r="1.64237" fill="#1A2236"/>
<circle cx="50.704" cy="173.358" r="1.64237" fill="#1A2236"/>
<circle cx="75.2347" cy="1.64237" r="1.64237" fill="#1A2236"/>
<circle cx="75.2347" cy="26.1731" r="1.64237" fill="#1A2236"/>
<circle cx="75.2347" cy="50.7039" r="1.64237" fill="#1A2236"/>
<circle cx="75.2347" cy="75.2348" r="1.64237" fill="#1A2236"/>
<circle cx="75.2347" cy="99.7655" r="1.64237" fill="#1A2236"/>
<circle cx="75.2347" cy="124.296" r="1.64237" fill="#1A2236"/>
<circle cx="75.2347" cy="148.827" r="1.64237" fill="#1A2236"/>
<circle cx="75.2347" cy="173.358" r="1.64237" fill="#1A2236"/>
<circle cx="99.7653" cy="1.64237" r="1.64237" fill="#1A2236"/>
<circle cx="99.7653" cy="26.1731" r="1.64237" fill="#1A2236"/>
<circle cx="99.7653" cy="50.7039" r="1.64237" fill="#1A2236"/>
<circle cx="99.7653" cy="75.2348" r="1.64237" fill="#1A2236"/>
<circle cx="99.7653" cy="99.7655" r="1.64237" fill="#1A2236"/>
<circle cx="99.7653" cy="124.296" r="1.64237" fill="#1A2236"/>
<circle cx="99.7653" cy="148.827" r="1.64237" fill="#1A2236"/>
<circle cx="99.7653" cy="173.358" r="1.64237" fill="#1A2236"/>
<circle cx="124.296" cy="1.64237" r="1.64237" fill="#1A2236"/>
<circle cx="124.296" cy="26.1731" r="1.64237" fill="#1A2236"/>
<circle cx="124.296" cy="50.7039" r="1.64237" fill="#1A2236"/>
<circle cx="124.296" cy="75.2348" r="1.64237" fill="#1A2236"/>
<circle cx="124.296" cy="99.7655" r="1.64237" fill="#1A2236"/>
<circle cx="124.296" cy="124.296" r="1.64237" fill="#1A2236"/>
<circle cx="124.296" cy="148.827" r="1.64237" fill="#1A2236"/>
<circle cx="124.296" cy="173.358" r="1.64237" fill="#1A2236"/>
<circle cx="148.827" cy="1.64237" r="1.64237" fill="#1A2236"/>
<circle cx="148.827" cy="26.1731" r="1.64237" fill="#1A2236"/>
<circle cx="148.827" cy="50.7039" r="1.64237" fill="#1A2236"/>
<circle cx="148.827" cy="75.2348" r="1.64237" fill="#1A2236"/>
<circle cx="148.827" cy="99.7655" r="1.64237" fill="#1A2236"/>
<circle cx="148.827" cy="124.296" r="1.64237" fill="#1A2236"/>
<circle cx="148.827" cy="148.827" r="1.64237" fill="#1A2236"/>
<circle cx="148.827" cy="173.358" r="1.64237" fill="#1A2236"/>
<circle cx="173.358" cy="1.64237" r="1.64237" fill="#1A2236"/>
<circle cx="173.358" cy="26.1731" r="1.64237" fill="#1A2236"/>
<circle cx="173.358" cy="50.7039" r="1.64237" fill="#1A2236"/>
<circle cx="173.358" cy="75.2348" r="1.64237" fill="#1A2236"/>
<circle cx="173.358" cy="99.7655" r="1.64237" fill="#1A2236"/>
<circle cx="173.358" cy="124.296" r="1.64237" fill="#1A2236"/>
<circle cx="173.358" cy="148.827" r="1.64237" fill="#1A2236"/>
<circle cx="173.358" cy="173.358" r="1.64237" fill="#1A2236"/>
</svg>
