<svg width="160" height="160" viewBox="0 0 160 160" fill="none" xmlns="http://www.w3.org/2000/svg">
<circle cx="1.5016" cy="1.5016" r="1.5016" fill="#1A2236"/>
<circle cx="1.5016" cy="23.9297" r="1.5016" fill="#1A2236"/>
<circle cx="1.5016" cy="46.3579" r="1.5016" fill="#1A2236"/>
<circle cx="1.5016" cy="68.786" r="1.5016" fill="#1A2236"/>
<circle cx="1.5016" cy="91.2141" r="1.5016" fill="#1A2236"/>
<circle cx="1.5016" cy="113.642" r="1.5016" fill="#1A2236"/>
<circle cx="1.5016" cy="136.07" r="1.5016" fill="#1A2236"/>
<circle cx="1.5016" cy="158.498" r="1.5016" fill="#1A2236"/>
<circle cx="23.9297" cy="1.5016" r="1.5016" fill="#1A2236"/>
<circle cx="23.9297" cy="23.9297" r="1.5016" fill="#1A2236"/>
<circle cx="23.9297" cy="46.3579" r="1.5016" fill="#1A2236"/>
<circle cx="23.9297" cy="68.786" r="1.5016" fill="#1A2236"/>
<circle cx="23.9297" cy="91.2141" r="1.5016" fill="#1A2236"/>
<circle cx="23.9297" cy="113.642" r="1.5016" fill="#1A2236"/>
<circle cx="23.9297" cy="136.07" r="1.5016" fill="#1A2236"/>
<circle cx="23.9297" cy="158.498" r="1.5016" fill="#1A2236"/>
<circle cx="46.3578" cy="1.5016" r="1.5016" fill="#1A2236"/>
<circle cx="46.3578" cy="23.9297" r="1.5016" fill="#1A2236"/>
<circle cx="46.3578" cy="46.3579" r="1.5016" fill="#1A2236"/>
<circle cx="46.3578" cy="68.786" r="1.5016" fill="#1A2236"/>
<circle cx="46.3578" cy="91.2141" r="1.5016" fill="#1A2236"/>
<circle cx="46.3578" cy="113.642" r="1.5016" fill="#1A2236"/>
<circle cx="46.3578" cy="136.07" r="1.5016" fill="#1A2236"/>
<circle cx="46.3578" cy="158.498" r="1.5016" fill="#1A2236"/>
<circle cx="68.786" cy="1.5016" r="1.5016" fill="#1A2236"/>
<circle cx="68.786" cy="23.9297" r="1.5016" fill="#1A2236"/>
<circle cx="68.786" cy="46.3579" r="1.5016" fill="#1A2236"/>
<circle cx="68.786" cy="68.786" r="1.5016" fill="#1A2236"/>
<circle cx="68.786" cy="91.2141" r="1.5016" fill="#1A2236"/>
<circle cx="68.786" cy="113.642" r="1.5016" fill="#1A2236"/>
<circle cx="68.786" cy="136.07" r="1.5016" fill="#1A2236"/>
<circle cx="68.786" cy="158.498" r="1.5016" fill="#1A2236"/>
<circle cx="91.2139" cy="1.5016" r="1.5016" fill="#1A2236"/>
<circle cx="91.2139" cy="23.9297" r="1.5016" fill="#1A2236"/>
<circle cx="91.2139" cy="46.3579" r="1.5016" fill="#1A2236"/>
<circle cx="91.2139" cy="68.786" r="1.5016" fill="#1A2236"/>
<circle cx="91.2139" cy="91.2141" r="1.5016" fill="#1A2236"/>
<circle cx="91.2139" cy="113.642" r="1.5016" fill="#1A2236"/>
<circle cx="91.2139" cy="136.07" r="1.5016" fill="#1A2236"/>
<circle cx="91.2139" cy="158.498" r="1.5016" fill="#1A2236"/>
<circle cx="113.642" cy="1.5016" r="1.5016" fill="#1A2236"/>
<circle cx="113.642" cy="23.9297" r="1.5016" fill="#1A2236"/>
<circle cx="113.642" cy="46.3579" r="1.5016" fill="#1A2236"/>
<circle cx="113.642" cy="68.786" r="1.5016" fill="#1A2236"/>
<circle cx="113.642" cy="91.2141" r="1.5016" fill="#1A2236"/>
<circle cx="113.642" cy="113.642" r="1.5016" fill="#1A2236"/>
<circle cx="113.642" cy="136.07" r="1.5016" fill="#1A2236"/>
<circle cx="113.642" cy="158.498" r="1.5016" fill="#1A2236"/>
<circle cx="136.07" cy="1.5016" r="1.5016" fill="#1A2236"/>
<circle cx="136.07" cy="23.9297" r="1.5016" fill="#1A2236"/>
<circle cx="136.07" cy="46.3579" r="1.5016" fill="#1A2236"/>
<circle cx="136.07" cy="68.786" r="1.5016" fill="#1A2236"/>
<circle cx="136.07" cy="91.2141" r="1.5016" fill="#1A2236"/>
<circle cx="136.07" cy="113.642" r="1.5016" fill="#1A2236"/>
<circle cx="136.07" cy="136.07" r="1.5016" fill="#1A2236"/>
<circle cx="136.07" cy="158.498" r="1.5016" fill="#1A2236"/>
<circle cx="158.498" cy="1.5016" r="1.5016" fill="#1A2236"/>
<circle cx="158.498" cy="23.9297" r="1.5016" fill="#1A2236"/>
<circle cx="158.498" cy="46.3579" r="1.5016" fill="#1A2236"/>
<circle cx="158.498" cy="68.786" r="1.5016" fill="#1A2236"/>
<circle cx="158.498" cy="91.2141" r="1.5016" fill="#1A2236"/>
<circle cx="158.498" cy="113.642" r="1.5016" fill="#1A2236"/>
<circle cx="158.498" cy="136.07" r="1.5016" fill="#1A2236"/>
<circle cx="158.498" cy="158.498" r="1.5016" fill="#1A2236"/>
</svg>
